<?xml version="1.0" encoding="UTF-8"?>
<svg width="140px" height="26px" viewBox="0 0 140 26" version="1.1" xmlns="http://www.w3.org/2000/svg" xmlns:xlink="http://www.w3.org/1999/xlink">
    <!-- Generator: Sketch 63.1 (92452) - https://sketch.com -->
    <title>Group</title>
    <desc>Created with Sketch.</desc>
    <g id="Page-1" stroke="none" stroke-width="1" fill="none" fill-rule="evenodd">
        <g id="Group" fill="#FFFFFF">
            <path d="M0,19.8559618 L1.66346313,17.2986022 C3.14794267,18.3728424 4.70885015,18.9355397 5.9885739,18.9355397 C7.11473079,18.9355397 7.62662029,18.5261277 7.62662029,17.9122761 L7.62662029,17.8611218 C7.62662029,17.0172535 6.29552985,16.7359049 4.78581132,16.2755162 C2.8662257,15.7128189 0.691050821,14.8177963 0.691050821,12.1579505 L0.691050821,12.1067962 C0.691050821,9.3190646 2.94300913,7.75903614 5.70703467,7.75903614 C7.44745896,7.75903614 9.34127236,8.34713295 10.8253964,9.34464175 L9.34127236,12.0300647 C7.98476519,11.2371731 6.62843577,10.7513849 5.63025125,10.7513849 C4.68343342,10.7513849 4.19696066,11.1604417 4.19696066,11.6977394 L4.19696066,11.7487161 C4.19696066,12.5160306 5.50227887,12.873933 6.98658067,13.385476 C8.90616629,14.0250824 11.1325301,14.9455045 11.1325301,17.452065 L11.1325301,17.5032193 C11.1325301,20.5465448 8.85497734,21.9277108 5.886196,21.9277108 C3.96678812,21.9277108 1.81685224,21.2882821 0,19.8559618" id="Fill-1"></path>
            <path d="M12.8192771,2.69879518 L16.7875631,2.69879518 L16.7875631,9.68619268 C17.7016197,8.52156652 18.8764209,7.46046269 20.8867653,7.46046269 C23.8893171,7.46046269 25.6385542,9.42738687 25.6385542,12.6105186 L25.6385542,21.5903614 L21.6699056,21.5903614 L21.6699056,13.8527865 C21.6699056,11.989205 20.7825037,11.0318032 19.2680817,11.0318032 C17.7536598,11.0318032 16.7875631,11.989205 16.7875631,13.8527865 L16.7875631,21.5903614 L12.8192771,21.5903614 L12.8192771,2.69879518" id="Fill-4"></path>
            <path d="M37.9924238,14.7266047 L37.9924238,14.6747891 C37.9924238,12.620941 36.5337514,10.8272543 34.383867,10.8272543 C32.1573787,10.8272543 30.8266756,12.5691254 30.8266756,14.6227929 L30.8266756,14.6747891 C30.8266756,16.7284566 32.285348,18.5223239 34.4350547,18.5223239 C36.6617207,18.5223239 37.9924238,16.7802722 37.9924238,14.7266047 Z M26.9879518,14.7266047 L26.9879518,14.6747891 C26.9879518,10.6712658 30.1612352,7.42168675 34.4350547,7.42168675 C38.683458,7.42168675 41.8313253,10.6192696 41.8313253,14.6227929 L41.8313253,14.6747891 C41.8313253,18.6781318 38.6576864,21.9277108 34.383867,21.9277108 C30.1356414,21.9277108 26.9879518,18.7301279 26.9879518,14.7266047 L26.9879518,14.7266047 Z" id="Fill-5"></path>
            <path d="M54.1077472,14.9581905 L54.1077472,14.9065811 C54.1077472,12.6101415 52.5616787,11.0878431 50.7323432,11.0878431 C48.9030076,11.0878431 47.3828858,12.6101415 47.3828858,14.9065811 L47.3828858,14.9581905 C47.3828858,17.2546301 48.9030076,18.7771077 50.7323432,18.7771077 C52.5616787,18.7771077 54.1077472,17.2804348 54.1077472,14.9581905 Z M43.5180723,8.0170832 L47.4342425,8.0170832 L47.4342425,10.0040455 C48.3874725,8.71381024 49.7016308,7.75903614 51.7371088,7.75903614 C54.957906,7.75903614 58.0240964,10.2878973 58.0240964,14.9065811 L58.0240964,14.9581905 C58.0240964,19.5766951 55.0096206,22.1055562 51.7371088,22.1055562 C49.6500952,22.1055562 48.3618836,21.1507821 47.4342425,20.041359 L47.4342425,25.9759036 L43.5180723,25.9759036 L43.5180723,8.0170832 L43.5180723,8.0170832 Z" id="Fill-7"></path>
            <path d="M59.7108434,7.68709865 L63.6795531,7.68709865 L63.6795531,10.4885037 C64.489035,8.56907917 65.7944696,7.32411034 68.1445783,7.42769261 L68.1445783,11.5520684 L67.9356798,11.5520684 C65.2985169,11.5520684 63.6795531,13.1344453 63.6795531,16.4546624 L63.6795531,21.5903614 L59.7108434,21.5903614 L59.7108434,7.68709865" id="Fill-9"></path>
            <path d="M79.823795,14.7266047 L79.823795,14.6747891 C79.823795,12.620941 78.3651401,10.8272543 76.2152814,10.8272543 C73.9888198,10.8272543 72.6581327,12.5691254 72.6581327,14.6227929 L72.6581327,14.6747891 C72.6581327,16.7284566 74.1167876,18.5223239 76.2664685,18.5223239 C78.4931079,18.5223239 79.823795,16.7802722 79.823795,14.7266047 Z M68.8192771,14.7266047 L68.8192771,14.6747891 C68.8192771,10.6712658 71.9925225,7.42168675 76.2664685,7.42168675 C80.514821,7.42168675 83.6626506,10.6192696 83.6626506,14.6227929 L83.6626506,14.6747891 C83.6626506,18.6781318 80.4890497,21.9277108 76.2152814,21.9277108 C71.9671067,21.9277108 68.8192771,18.7301279 68.8192771,14.7266047 L68.8192771,14.7266047 Z" id="Fill-10"></path>
            <path d="M85.0120482,14.7266047 L85.0120482,14.6747891 C85.0120482,10.6972639 88.0238793,7.42168675 92.2453055,7.42168675 C94.8455954,7.42168675 96.4674469,8.30562136 97.7544518,9.76151365 L95.3602901,12.3609602 C94.4850052,11.42521 93.6098991,10.8272543 92.2197406,10.8272543 C90.263579,10.8272543 88.8735993,12.5691254 88.8735993,14.6227929 L88.8735993,14.6747891 C88.8735993,16.8064508 90.2380141,18.5223239 92.3740239,18.5223239 C93.6873089,18.5223239 94.5881587,17.9503662 95.5403171,17.040253 L97.8313253,19.3800799 C96.4930118,20.8617897 94.9485701,21.9277108 92.1941757,21.9277108 C88.0494442,21.9277108 85.0120482,18.7039493 85.0120482,14.7266047" id="Fill-11"></path>
            <polyline id="Fill-12" points="99.1807229 2.69879518 103.132853 2.69879518 103.132853 12.7656224 107.760855 7.7192685 112.492865 7.7192685 107.188449 13.1797117 112.674699 21.5903614 108.09852 21.5903614 104.536782 15.8971727 103.132853 17.3721861 103.132853 21.5903614 99.1807229 21.5903614 99.1807229 2.69879518"></polyline>
            <path d="M122.034496,13.5568718 C121.803408,11.7890026 120.77732,10.5934521 119.135472,10.5934521 C117.519638,10.5934521 116.467358,11.763185 116.159835,13.5568718 L122.034496,13.5568718 Z M112.337349,14.7266047 L112.337349,14.6747891 C112.337349,10.6972639 115.133747,7.42168675 119.135472,7.42168675 C123.728014,7.42168675 125.831325,11.0354194 125.831325,14.9865854 C125.831325,15.2985624 125.805847,15.6625354 125.78019,16.0266891 L116.21097,16.0266891 C116.595642,17.8203758 117.827161,18.756126 119.571814,18.756126 C120.880125,18.756126 121.8296,18.3403373 122.906823,17.3264123 L125.138952,19.3279032 C123.856297,20.9397839 122.00884,21.9277108 119.520322,21.9277108 C115.390135,21.9277108 112.337349,18.9901087 112.337349,14.7266047 L112.337349,14.7266047 Z" id="Fill-13"></path>
            <path d="M128.484735,17.7863657 L128.484735,11.253069 L126.843373,11.253069 L126.843373,7.90916006 L128.484735,7.90916006 L128.484735,4.38554217 L132.383212,4.38554217 L132.383212,7.90916006 L135.614458,7.90916006 L135.614458,11.253069 L132.383212,11.253069 L132.383212,17.1434505 C132.383212,18.0436032 132.76777,18.4809069 133.639837,18.4809069 C134.357654,18.4809069 134.998881,18.3008407 135.563338,17.9923343 L135.563338,21.1302746 C134.74239,21.6190258 133.793732,21.9277108 132.485808,21.9277108 C130.100625,21.9277108 128.484735,20.9761107 128.484735,17.7863657" id="Fill-14"></path>
            <polyline id="Fill-15" points="132.240964 2.70063368 134.928234 0 140 0 140 4.98616474 137.28801 7.75903614 137.28801 2.70063368 132.240964 2.70063368"></polyline>
        </g>
    </g>
</svg>